<?xml version="1.0" encoding="UTF-8" standalone="no"?>
<!-- Created with Inkscape (http://www.inkscape.org/) -->

<svg
   xmlns:dc="http://purl.org/dc/elements/1.1/"
   xmlns:cc="http://creativecommons.org/ns#"
   xmlns:rdf="http://www.w3.org/1999/02/22-rdf-syntax-ns#"
   xmlns:svg="http://www.w3.org/2000/svg"
   xmlns="http://www.w3.org/2000/svg"
   xmlns:sodipodi="http://sodipodi.sourceforge.net/DTD/sodipodi-0.dtd"
   xmlns:inkscape="http://www.inkscape.org/namespaces/inkscape"
   width="198.6451mm"
   height="54.602009mm"
   viewBox="0 0 198.6451 54.602009"
   version="1.1"
   id="svg8"
   inkscape:version="0.92.3 (2405546, 2018-03-11)"
   sodipodi:docname="logo.svg">
  <defs
     id="defs2" />
  <sodipodi:namedview
     id="base"
     pagecolor="#ffffff"
     bordercolor="#666666"
     borderopacity="1.0"
     inkscape:pageopacity="0.0"
     inkscape:pageshadow="2"
     inkscape:zoom="0.98994949"
     inkscape:cx="329.7229"
     inkscape:cy="79.720506"
     inkscape:document-units="mm"
     inkscape:current-layer="g593"
     showgrid="false"
     inkscape:window-width="1366"
     inkscape:window-height="705"
     inkscape:window-x="-8"
     inkscape:window-y="-8"
     inkscape:window-maximized="1" />
  <metadata
     id="metadata5">
    <rdf:RDF>
      <cc:Work
         rdf:about="">
        <dc:format>image/svg+xml</dc:format>
        <dc:type
           rdf:resource="http://purl.org/dc/dcmitype/StillImage" />
        <dc:title></dc:title>
      </cc:Work>
    </rdf:RDF>
  </metadata>
  <g
     inkscape:label="Layer 1"
     inkscape:groupmode="layer"
     id="layer1"
     transform="translate(-4.535521,-102.61335)">
    <g
       id="g593">
      <g
         id="g620">
        <g
           id="g606">
          <path
             d="m 35.703438,115.62286 q 0.846667,0 1.375834,0.52916 0.529166,0.52917 0.529166,1.37584 0,0.79375 -0.529166,1.32291 -0.529167,0.52917 -1.375834,0.52917 H 23.109271 v 35.50709 q 0,0.84666 -0.582083,1.48166 -0.582083,0.58209 -1.481667,0.58209 -0.846666,0 -1.481666,-0.58209 -0.582084,-0.635 -0.582084,-1.48166 V 119.37994 H 6.440521 q -0.8466666,0 -1.3758333,-0.52917 -0.5291667,-0.52916 -0.5291667,-1.32291 0,-0.84667 0.5291667,-1.37584 0.5291667,-0.52916 1.3758333,-0.52916 z"
             style="font-style:normal;font-variant:normal;font-weight:normal;font-stretch:normal;font-size:52.91666794px;line-height:1.25;font-family:Comfortaa;-inkscape-font-specification:Comfortaa;letter-spacing:0px;word-spacing:0px;fill:#c6d5db;fill-opacity:1;stroke:none;stroke-width:0.26458332"
             id="path554"
             inkscape:connector-curvature="0" />
          <path
             d="m 54.378065,127.74077 q 3.915833,0 6.932083,1.85209 3.01625,1.79916 4.656667,5.02708 1.693333,3.22792 1.693333,7.35542 0,0.84666 -0.529166,1.37583 -0.529167,0.47625 -1.375834,0.47625 H 44.376815 q 0.423333,4.33917 3.386666,7.03792 2.963334,2.69875 7.408334,2.69875 1.905,0 3.81,-0.635 1.957917,-0.68792 3.122083,-1.69333 0.687917,-0.52917 1.42875,-0.52917 0.582084,0 1.164167,0.42333 0.687917,0.635 0.687917,1.42875 0,0.68792 -0.582084,1.21709 -1.74625,1.48166 -4.445,2.48708 -2.69875,0.9525 -5.185833,0.9525 -4.233334,0 -7.567084,-1.85208 -3.33375,-1.905 -5.23875,-5.23876 -1.852083,-3.38666 -1.852083,-7.62 0,-4.28625 1.74625,-7.62 1.799167,-3.38666 4.92125,-5.23875 3.175,-1.905 7.196667,-1.905 z m 0,3.65125 q -4.021667,0 -6.6675,2.48709 -2.645834,2.48708 -3.227917,6.56166 h 19.3675 q -0.423333,-4.07458 -2.963333,-6.56166 -2.54,-2.48709 -6.50875,-2.48709 z"
             style="font-style:normal;font-variant:normal;font-weight:normal;font-stretch:normal;font-size:52.91666794px;line-height:1.25;font-family:Comfortaa;-inkscape-font-specification:Comfortaa;letter-spacing:0px;word-spacing:0px;fill:#ff5252;fill-opacity:1;stroke:none;stroke-width:0.26458332"
             id="path556"
             inkscape:connector-curvature="0" />
          <path
             d="m 97.4142,154.04036 q 0.47625,0.52917 0.47625,1.21708 0,0.79375 -0.740834,1.42875 -0.635,0.47625 -1.27,0.47625 -0.846666,0 -1.42875,-0.74083 l -10.900833,-13.38792 -3.96875,3.59833 v 8.30792 q 0,0.89959 -0.582084,1.48167 -0.529166,0.52917 -1.42875,0.52917 -0.899583,0 -1.481666,-0.52917 -0.529167,-0.58208 -0.529167,-1.48167 v -37.30625 q 0,-0.89958 0.529167,-1.42875 0.582083,-0.58208 1.481666,-0.58208 0.899584,0 1.42875,0.58208 0.582084,0.52917 0.582084,1.42875 v 24.07708 l 14.9225,-13.49375 q 0.582083,-0.52916 1.27,-0.52916 0.79375,0 1.322917,0.635 0.582083,0.68791 0.582083,1.27 0,0.74083 -0.687917,1.32291 l -10.583333,9.57792 z"
             style="font-style:normal;font-variant:normal;font-weight:normal;font-stretch:normal;font-size:52.91666794px;line-height:1.25;font-family:Comfortaa;-inkscape-font-specification:Comfortaa;letter-spacing:0px;word-spacing:0px;fill:#c6d5db;fill-opacity:1;stroke:none;stroke-width:0.26458332"
             id="path558"
             inkscape:connector-curvature="0" />
          <path
             d="m 119.54747,127.68786 q 3.75708,0 6.72042,1.5875 3.01625,1.5875 4.70958,4.65666 1.69333,3.01625 1.69333,7.24959 v 13.75833 q 0,0.84667 -0.58208,1.42875 -0.58208,0.58209 -1.42875,0.58209 -0.89958,0 -1.48167,-0.58209 -0.58208,-0.58208 -0.58208,-1.42875 v -13.75833 q 0,-4.70959 -2.64583,-7.14375 -2.59292,-2.48709 -6.82625,-2.48709 -2.59292,0 -4.70959,1.00542 -2.06375,1.00542 -3.28083,2.80458 -1.21709,1.74625 -1.21709,3.91584 v 15.66333 q 0,0.89959 -0.58208,1.48167 -0.52917,0.52917 -1.42875,0.52917 -0.89959,0 -1.48167,-0.52917 -0.58209,-0.58208 -0.58209,-1.48167 v -37.25333 q 0,-0.89959 0.58209,-1.48167 0.58208,-0.58208 1.48167,-0.58208 0.89958,0 1.42875,0.58208 0.58208,0.58208 0.58208,1.48167 v 14.18166 q 1.74625,-1.95791 4.23334,-3.06916 2.48708,-1.11125 5.3975,-1.11125 z"
             style="font-style:normal;font-variant:normal;font-weight:normal;font-stretch:normal;font-size:52.91666794px;line-height:1.25;font-family:Comfortaa;-inkscape-font-specification:Comfortaa;letter-spacing:0px;word-spacing:0px;fill:#c6d5db;fill-opacity:1;stroke:none;stroke-width:0.26458332"
             id="path560"
             inkscape:connector-curvature="0" />
          <path
             d="m 155.41091,127.68786 q 3.75708,0 6.72042,1.5875 3.01625,1.5875 4.70958,4.65666 1.69333,3.01625 1.69333,7.24959 v 13.75833 q 0,0.84667 -0.58208,1.42875 -0.58208,0.58209 -1.42875,0.58209 -0.89958,0 -1.48167,-0.58209 -0.58208,-0.58208 -0.58208,-1.42875 v -13.75833 q 0,-4.70959 -2.64583,-7.14375 -2.59292,-2.48709 -6.82625,-2.48709 -2.59292,0 -4.70959,1.00542 -2.06375,1.00542 -3.28083,2.80458 -1.21708,1.74625 -1.21708,3.91584 v 15.66333 q 0,0.89959 -0.58209,1.48167 -0.52916,0.52917 -1.42875,0.52917 -0.89958,0 -1.48166,-0.52917 -0.58209,-0.58208 -0.58209,-1.48167 v -24.87083 q 0,-0.89959 0.58209,-1.48167 0.58208,-0.58208 1.48166,-0.58208 0.89959,0 1.42875,0.58208 0.58209,0.58208 0.58209,1.48167 v 1.79916 q 1.74625,-1.95791 4.23333,-3.06916 2.48708,-1.11125 5.3975,-1.11125 z"
             style="font-style:normal;font-variant:normal;font-weight:normal;font-stretch:normal;font-size:52.91666794px;line-height:1.25;font-family:Comfortaa;-inkscape-font-specification:Comfortaa;letter-spacing:0px;word-spacing:0px;fill:#c6d5db;fill-opacity:1;stroke:none;stroke-width:0.26458332"
             id="path562"
             inkscape:connector-curvature="0" />
          <path
             d="m 189.89853,127.74077 q 3.91583,0 6.93208,1.85209 3.01625,1.79916 4.65667,5.02708 1.69333,3.22792 1.69333,7.35542 0,0.84666 -0.52917,1.37583 -0.52916,0.47625 -1.37583,0.47625 h -21.37833 q 0.42333,4.33917 3.38666,7.03792 2.96334,2.69875 7.40834,2.69875 1.905,0 3.81,-0.635 1.95791,-0.68792 3.12208,-1.69333 0.68792,-0.52917 1.42875,-0.52917 0.58208,0 1.16417,0.42333 0.68791,0.635 0.68791,1.42875 0,0.68792 -0.58208,1.21709 -1.74625,1.48166 -4.445,2.48708 -2.69875,0.9525 -5.18583,0.9525 -4.23334,0 -7.56709,-1.85208 -3.33375,-1.905 -5.23875,-5.23876 -1.85208,-3.38666 -1.85208,-7.62 0,-4.28625 1.74625,-7.62 1.79917,-3.38666 4.92125,-5.23875 3.175,-1.905 7.19667,-1.905 z m 0,3.65125 q -4.02167,0 -6.6675,2.48709 -2.64584,2.48708 -3.22792,6.56166 h 19.3675 q -0.42333,-4.07458 -2.96333,-6.56166 -2.54,-2.48709 -6.50875,-2.48709 z"
             style="font-style:normal;font-variant:normal;font-weight:normal;font-stretch:normal;font-size:52.91666794px;line-height:1.25;font-family:Comfortaa;-inkscape-font-specification:Comfortaa;letter-spacing:0px;word-spacing:0px;fill:#c6d5db;fill-opacity:1;stroke:none;stroke-width:0.26458332"
             id="path564"
             inkscape:connector-curvature="0" />
          <g
             transform="matrix(0.11705061,0,0,0.11705061,24.028859,102.61335)"
             id="g343">
            <g
               id="g264">
              <path
                 style="fill:#40c4ff"
                 d="M 355.422,71.22 C 328.699,44.639 293.39,30 256,30 c -37.39,0 -72.699,14.639 -99.422,41.22 -5.873,5.843 -15.37,5.817 -21.213,-0.057 C 129.523,65.29 129.548,55.792 135.422,49.95 167.805,17.74 210.627,0 256,0 c 45.373,0 88.195,17.74 120.578,49.951 5.874,5.842 5.899,15.34 0.057,21.213 -5.841,5.872 -15.339,5.9 -21.213,0.056 z"
                 id="path258"
                 inkscape:connector-curvature="0" />
              <path
                 style="fill:#40c4ff"
                 d="M 312.641,118.119 C 297.604,102.446 277.489,93.815 256,93.815 c -21.489,0 -41.604,8.631 -56.641,24.303 -5.735,5.978 -15.231,6.175 -21.208,0.439 -5.978,-5.735 -6.174,-15.23 -0.439,-21.208 20.747,-21.625 48.55,-33.534 78.289,-33.534 29.739,0 57.542,11.909 78.289,33.534 5.735,5.978 5.539,15.473 -0.439,21.208 -5.978,5.734 -15.473,5.542 -21.21,-0.438 z"
                 id="path260"
                 inkscape:connector-curvature="0" />
              <path
                 style="fill:#40c4ff"
                 d="m 268.904,164.104 c -3.142,-4.114 -7.845,-6.474 -12.904,-6.474 -5.059,0 -9.762,2.359 -12.904,6.474 -5.029,6.584 -14.442,7.845 -21.025,2.817 -6.584,-5.028 -7.845,-14.442 -2.817,-21.025 8.865,-11.608 22.258,-18.266 36.746,-18.266 14.488,0 27.881,6.658 36.746,18.266 5.028,6.583 3.767,15.997 -2.817,21.025 -6.576,5.023 -15.991,3.775 -21.025,-2.817 z"
                 id="path262"
                 inkscape:connector-curvature="0" />
            </g>
          </g>
        </g>
      </g>
    </g>
  </g>
</svg>
